Coordinates
version=1
nRows=39
nColumns=38
inDegrees=no

Units are S.I. units (second, meters, Newtons, ...)
If the header above contains a line with 'inDegrees', this indicates whether rotational values are in degrees (yes) or radians (no).

endheader
time	pelvis_tilt	pelvis_list	pelvis_rotation	pelvis_tx	pelvis_ty	pelvis_tz	hip_flexion_r	hip_adduction_r	hip_rotation_r	knee_angle_r	ankle_angle_r	subtalar_angle_r	mtp_angle_r	hip_flexion_l	hip_adduction_l	hip_rotation_l	knee_angle_l	ankle_angle_l	subtalar_angle_l	mtp_angle_l	lumbar_extension	lumbar_bending	lumbar_rotation	arm_flex_r	arm_add_r	arm_rot_r	elbow_flex_r	pro_sup_r	wrist_flex_r	wrist_dev_r	arm_flex_l	arm_add_l	arm_rot_l	elbow_flex_l	pro_sup_l	wrist_flex_l	wrist_dev_l
0	0.0455779	-0.0431471	-3.10864	-0.196406	0.988675	-0.0091128	0.00447245	-0.0654025	-0.354257	0.0854036	0.0943989	0	0	0.0282034	-0.00874502	0.0908171	0.104667	0.0575015	0	0	-0.104499	-0.0919136	0.0924259	-1.56571	-0.926591	-1.44678	0.839393	0.339331	0	0	1.07931	-1.52518	-0.962346	0.11746	1.55979	0	0
0.00999069	0.0461345	-0.0429457	-3.10836	-0.196175	0.988556	-0.00902619	0.00492165	-0.0652495	-0.354088	0.0854207	0.0939986	0	0	0.028636	-0.00885496	0.090984	0.104475	0.0571392	0	0	-0.102208	-0.0918446	0.0946071	-1.56572	-0.923677	-1.45835	0.839823	0.377368	0	0	1.08293	-1.5287	-0.773869	0.100328	1.55971	0	0
0.0199814	0.0466947	-0.0427332	-3.10807	-0.195971	0.988456	-0.00892988	0.00536969	-0.0650944	-0.353913	0.0854295	0.0935847	0	0	0.0290842	-0.00896529	0.0911428	0.1043	0.0567827	0	0	-0.0998298	-0.0917456	0.09693	-1.56572	-0.920763	-1.46942	0.840047	0.414464	0	0	1.08627	-1.53143	-0.589137	0.0845582	1.55963	0	0
0.0299721	0.0472618	-0.042496	-3.10776	-0.195799	0.988367	-0.00881628	0.00581317	-0.0649361	-0.353727	0.0854157	0.0931423	0	0	0.0295609	-0.00907451	0.0912886	0.104156	0.0564336	0	0	-0.0973071	-0.0915799	0.0995258	-1.56573	-0.917819	-1.47971	0.839872	0.449617	0	0	1.08916	-1.5328	-0.412605	0.0709198	1.55954	0	0
0.0399628	0.0478378	-0.0422349	-3.10744	-0.195649	0.988286	-0.00868291	0.00625449	-0.0647796	-0.353522	0.0853718	0.0926689	0	0	0.0300694	-0.00917675	0.0914156	0.104043	0.0560941	0	0	-0.0946679	-0.0913284	0.102395	-1.56574	-0.914866	-1.48913	0.839257	0.481998	0	0	1.09156	-1.53268	-0.249058	0.0597332	1.55946	0	0
0.0499534	0.0484177	-0.0419568	-3.10714	-0.19551	0.98821	-0.00853336	0.00669524	-0.0646276	-0.353295	0.0853003	0.0921744	0	0	0.0306029	-0.00927014	0.0915164	0.103963	0.0557708	0	0	-0.0919869	-0.0909943	0.105453	-1.56575	-0.911961	-1.49753	0.838271	0.511063	0	0	1.09345	-1.5312	-0.102188	0.0510077	1.55938	0	0
0.0599441	0.048991	-0.0416726	-3.10686	-0.195367	0.988136	-0.00837455	0.00713311	-0.0644829	-0.353048	0.085211	0.0916769	0	0	0.0311455	-0.00935415	0.0915842	0.103912	0.0554745	0	0	-0.0893608	-0.0905964	0.108565	-1.56576	-0.909192	-1.50478	0.837049	0.536521	0	0	1.09488	-1.52866	0.025628	0.0445527	1.5593	0	0
0.0699348	0.0495446	-0.0413969	-3.10663	-0.195209	0.988066	-0.00821399	0.00756037	-0.0643498	-0.352789	0.0851143	0.0911966	0	0	0.0316771	-0.00942662	0.0916155	0.103885	0.0552154	0	0	-0.0868828	-0.0901629	0.111584	-1.56576	-0.906647	-1.51086	0.835728	0.55829	0	0	1.09593	-1.52543	0.13338	0.0400657	1.55922	0	0
0.0799255	0.0500641	-0.0411431	-3.10645	-0.195028	0.987999	-0.00805799	0.00796638	-0.0642345	-0.352528	0.0850203	0.090752	0	0	0.032177	-0.00948364	0.0916122	0.103878	0.055	0	0	-0.0846264	-0.0897241	0.114385	-1.56577	-0.904399	-1.51578	0.834423	0.576467	0	0	1.09669	-1.52186	0.221304	0.0371963	1.55914	0	0
0.0899162	0.0505366	-0.0409206	-3.10631	-0.194821	0.987939	-0.0079112	0.00834067	-0.0641428	-0.352276	0.0849374	0.0903578	0	0	0.0326278	-0.00952123	0.0915795	0.103883	0.054832	0	0	-0.0826388	-0.089306	0.116877	-1.56578	-0.902495	-1.51962	0.833219	0.591282	0	0	1.09725	-1.51823	0.290631	0.035592	1.55906	0	0
0.0999069	0.0509545	-0.040737	-3.10621	-0.194589	0.987884	-0.00777656	0.00867472	-0.0640799	-0.352046	0.0848694	0.0900233	0	0	0.0330187	-0.00953515	0.0915266	0.103894	0.0547115	0	0	-0.0809406	-0.0889301	0.11901	-1.56579	-0.900948	-1.52253	0.83216	0.603057	0	0	1.0977	-1.51474	0.343302	0.0349266	1.55898	0	0
0.109898	0.0513148	-0.0405954	-3.10614	-0.194335	0.987836	-0.00765519	0.00896403	-0.0640497	-0.351847	0.0848179	0.0897528	0	0	0.0333456	-0.00952176	0.091464	0.103908	0.0546348	0	0	-0.0795295	-0.0886104	0.120767	-1.5658	-0.899746	-1.52466	0.831262	0.612177	0	0	1.09811	-1.51153	0.381663	0.0349171	1.5589	0	0
0.119888	0.0516182	-0.0404961	-3.10609	-0.194062	0.987793	-0.0075472	0.00920774	-0.064054	-0.351686	0.0847837	0.0895462	0	0	0.0336103	-0.00947942	0.0914027	0.103921	0.0545962	0	0	-0.078386	-0.0883548	0.122155	-1.5658	-0.898862	-1.52618	0.830527	0.619053	0	0	1.09852	-1.50868	0.408217	0.0353303	1.55882	0	0
0.129879	0.0518683	-0.0404367	-3.10604	-0.193774	0.987756	-0.00745221	0.00940734	-0.0640917	-0.351569	0.0847662	0.0894004	0	0	0.0338185	-0.00940926	0.091352	0.103934	0.0545897	0	0	-0.0774802	-0.0881667	0.1232	-1.56581	-0.898257	-1.5272	0.829941	0.624095	0	0	1.09899	-1.50622	0.425421	0.0359838	1.55874	0	0
0.13987	0.0520697	-0.0404125	-3.10598	-0.193477	0.987724	-0.00736915	0.00956596	-0.06416	-0.351499	0.0847641	0.0893104	0	0	0.0339779	-0.00931354	0.0913188	0.103947	0.0546108	0	0	-0.0767781	-0.0880444	0.123939	-1.56582	-0.897889	-1.52786	0.829487	0.62768	0	0	1.09954	-1.50414	0.435543	0.0367417	1.55865	0	0
0.14986	0.0522268	-0.0404161	-3.10591	-0.193174	0.987696	-0.007297	0.00968829	-0.0642532	-0.351476	0.0847787	0.0892706	0	0	0.0340966	-0.00919752	0.0913059	0.103962	0.054656	0	0	-0.0762447	-0.0879829	0.124413	-1.56583	-0.897719	-1.52819	0.829157	0.630145	0	0	1.10017	-1.50241	0.44057	0.0375091	1.55857	0	0
0.159851	0.0523448	-0.0404425	-3.10582	-0.192867	0.987672	-0.00723462	0.0097788	-0.0643676	-0.351501	0.084809	0.0892753	0	0	0.0341827	-0.0090645	0.0913159	0.103979	0.0547209	0	0	-0.0758497	-0.0879779	0.124664	-1.56583	-0.897705	-1.52824	0.828933	0.631759	0	0	1.10089	-1.501	0.442171	0.0382246	1.55849	0	0
0.169842	0.0524285	-0.0404877	-3.1057	-0.19256	0.987652	-0.00718094	0.0098423	-0.0644997	-0.351572	0.0848549	0.0893192	0	0	0.0342432	-0.00891756	0.0913494	0.103998	0.0548005	0	0	-0.0755673	-0.0880243	0.124731	-1.56584	-0.89781	-1.52804	0.828802	0.632739	0	0	1.10171	-1.49985	0.441683	0.0388529	1.55841	0	0
0.179832	0.0524819	-0.0405466	-3.10556	-0.192254	0.987636	-0.00713492	0.009884	-0.0646456	-0.351685	0.084918	0.0893969	0	0	0.0342834	-0.00876043	0.0914052	0.104019	0.0548906	0	0	-0.0753762	-0.0881155	0.124649	-1.56585	-0.898006	-1.52761	0.828755	0.633248	0	0	1.10262	-1.49892	0.440122	0.0393788	1.55833	0	0
0.189823	0.0525088	-0.0406152	-3.10539	-0.19195	0.987622	-0.00709552	0.00990897	-0.0648014	-0.351833	0.0849978	0.0895012	0	0	0.0343076	-0.00859693	0.0914822	0.10404	0.0549852	0	0	-0.0752614	-0.088243	0.124449	-1.56585	-0.898264	-1.52698	0.828782	0.633401	0	0	1.1036	-1.49819	0.438218	0.0398004	1.55825	0	0
0.199814	0.0525137	-0.0406903	-3.1052	-0.191648	0.987612	-0.00706115	0.00992176	-0.0649654	-0.352007	0.0850903	0.0896238	0	0	0.0343199	-0.00842854	0.0915799	0.104061	0.0550774	0	0	-0.0752132	-0.0883954	0.124155	-1.56586	-0.898561	-1.52627	0.828867	0.633279	0	0	1.10464	-1.49763	0.436456	0.0401249	1.55817	0	0
0.209804	0.0525004	-0.0407684	-3.10499	-0.191349	0.987604	-0.0070303	0.00992633	-0.0651341	-0.3522	0.0851914	0.0897554	0	0	0.0343237	-0.00825762	0.0916962	0.104079	0.0551611	0	0	-0.0752246	-0.0885601	0.123789	-1.56587	-0.898875	-1.52555	0.829003	0.63295	0	0	1.10573	-1.4972	0.435113	0.0403646	1.55809	0	0
0.219795	0.0524717	-0.0408457	-3.10477	-0.191051	0.987597	-0.00700171	0.00992578	-0.0653031	-0.352403	0.0852967	0.0898868	0	0	0.0343219	-0.00808773	0.0918275	0.104094	0.0552314	0	0	-0.0752904	-0.0887239	0.123369	-1.56587	-0.899187	-1.52492	0.829189	0.632475	0	0	1.10685	-1.4969	0.434309	0.0405343	1.55801	0	0
0.229786	0.0524291	-0.0409178	-3.10455	-0.190755	0.987593	-0.00697413	0.00992188	-0.0654665	-0.35261	0.0854021	0.0900097	0	0	0.0343165	-0.00792312	0.0919692	0.104105	0.0552851	0	0	-0.0754067	-0.0888735	0.122917	-1.56588	-0.899478	-1.52442	0.829424	0.631903	0	0	1.10797	-1.4967	0.434049	0.0406487	1.55792	0	0
0.239777	0.0523722	-0.0409805	-3.10433	-0.190461	0.987591	-0.00694664	0.00991443	-0.0656181	-0.352816	0.0855043	0.0901176	0	0	0.0343079	-0.00776896	0.0921155	0.104113	0.0553216	0	0	-0.0755692	-0.0889973	0.122456	-1.56589	-0.89973	-1.52407	0.82971	0.631273	0	0	1.10909	-1.49655	0.434262	0.0407219	1.55784	0	0
0.249767	0.0523005	-0.0410328	-3.10411	-0.190169	0.98759	-0.0069182	0.00990087	-0.0657544	-0.353015	0.0855977	0.0902068	0	0	0.0342957	-0.00762692	0.0922608	0.104119	0.0553427	0	0	-0.0757729	-0.0890878	0.122019	-1.5659	-0.899917	-1.52394	0.830036	0.630619	0	0	1.11019	-1.49643	0.434838	0.040766	1.55776	0	0
0.259758	0.0522135	-0.0410761	-3.1039	-0.18988	0.987591	-0.00688835	0.00987888	-0.0658753	-0.353207	0.0856787	0.0902769	0	0	0.0342794	-0.00749628	0.0923993	0.104125	0.055353	0	0	-0.0760121	-0.0891436	0.121623	-1.5659	-0.90003	-1.52403	0.83039	0.629981	0	0	1.11127	-1.4963	0.43567	0.0407911	1.55768	0	0
0.269749	0.0521115	-0.0411125	-3.10371	-0.189594	0.987594	-0.00685705	0.00984742	-0.0659822	-0.353387	0.0857457	0.0903289	0	0	0.0342587	-0.00737551	0.0925272	0.104134	0.0553572	0	0	-0.0762806	-0.0891663	0.121277	-1.56591	-0.900075	-1.52435	0.830756	0.629404	0	0	1.11233	-1.49615	0.436671	0.0408051	1.5576	0	0
0.279739	0.0519954	-0.0411436	-3.10354	-0.189313	0.987599	-0.00682454	0.00980726	-0.0660768	-0.353554	0.0857987	0.0903646	0	0	0.0342341	-0.00726325	0.0926434	0.104148	0.055359	0	0	-0.0765709	-0.0891594	0.120984	-1.56592	-0.900064	-1.52487	0.831119	0.628934	0	0	1.11338	-1.49598	0.437781	0.0408141	1.55752	0	0
0.28973	0.0518677	-0.0411693	-3.10338	-0.189036	0.987605	-0.00679133	0.00976129	-0.0661595	-0.353703	0.0858391	0.090385	0	0	0.0342072	-0.00715997	0.092747	0.104167	0.0553622	0	0	-0.0768745	-0.0891255	0.120742	-1.56592	-0.900014	-1.52556	0.83147	0.628604	0	0	1.11442	-1.49578	0.438964	0.0408221	1.55744	0	0
0.299721	0.0517313	-0.0411889	-3.10326	-0.188765	0.987613	-0.006758	0.00971403	-0.0662304	-0.353829	0.0858703	0.0903917	0	0	0.0341808	-0.0070666	0.0928356	0.104195	0.05537	0	0	-0.0771821	-0.0890672	0.120549	-1.56593	-0.899941	-1.52634	0.831804	0.62843	0	0	1.11545	-1.49555	0.440206	0.040832	1.55735	0	0
0.309711	0.0515895	-0.0412016	-3.10315	-0.188499	0.987621	-0.00672546	0.00967063	-0.066289	-0.353931	0.0858967	0.0903864	0	0	0.0341582	-0.00698477	0.0929068	0.104232	0.0553844	0	0	-0.0774842	-0.0889884	0.120402	-1.56594	-0.899862	-1.52714	0.832123	0.628402	0	0	1.11647	-1.49529	0.441502	0.0408453	1.55727	0	0
0.319702	0.0514457	-0.0412088	-3.10307	-0.18824	0.987631	-0.00669457	0.00963533	-0.0663363	-0.354007	0.0859212	0.0903719	0	0	0.0341424	-0.00691443	0.0929608	0.104281	0.0554054	0	0	-0.0777742	-0.0888948	0.120299	-1.56594	-0.899788	-1.5279	0.832423	0.628491	0	0	1.11749	-1.49499	0.44286	0.0408629	1.55719	0	0
0.329693	0.0513014	-0.041211	-3.10301	-0.187988	0.987642	-0.00666591	0.00961104	-0.0663733	-0.354058	0.0859469	0.0903506	0	0	0.0341355	-0.00685537	0.0929969	0.10434	0.0554332	0	0	-0.0780474	-0.0887907	0.120236	-1.56595	-0.899729	-1.52856	0.832706	0.628665	0	0	1.1185	-1.49465	0.444286	0.0408848	1.55711	0	0
0.339683	0.0511579	-0.0412095	-3.10296	-0.187742	0.987653	-0.0066396	0.00959891	-0.0664022	-0.354086	0.0859748	0.0903238	0	0	0.034139	-0.00680552	0.093015	0.104411	0.055467	0	0	-0.0783017	-0.0886799	0.120209	-1.56595	-0.899691	-1.52912	0.832967	0.628885	0	0	1.11951	-1.49427	0.445787	0.0409107	1.55703	0	0
0.349674	0.0510154	-0.0412044	-3.10293	-0.187502	0.987666	-0.00661582	0.00959919	-0.0664239	-0.354093	0.0860071	0.090293	0	0	0.0341538	-0.0067643	0.0930153	0.104495	0.0555073	0	0	-0.0785349	-0.0885655	0.120215	-1.56596	-0.899679	-1.52953	0.83321	0.629113	0	0	1.12049	-1.49384	0.447368	0.0409403	1.55695	0	0
0.359665	0.0508727	-0.0411945	-3.10291	-0.187269	0.98768	-0.00659486	0.00961166	-0.0664377	-0.354083	0.0860468	0.0902596	0	0	0.0341798	-0.00673292	0.0929992	0.104591	0.055556	0	0	-0.0787446	-0.0884501	0.12025	-1.56597	-0.899697	-1.52973	0.833443	0.629312	0	0	1.12145	-1.49334	0.44903	0.0409729	1.55686	0	0
0.369655	0.0507296	-0.0411788	-3.1029	-0.187043	0.987696	-0.00657674	0.00963566	-0.0664437	-0.354061	0.0860954	0.0902258	0	0	0.0342169	-0.00671154	0.0929711	0.104699	0.055615	0	0	-0.0789299	-0.0883357	0.12031	-1.56597	-0.899748	-1.52967	0.83367	0.629437	0	0	1.12237	-1.49279	0.450772	0.0410079	1.55678	0	0
0.379646	0.0505868	-0.0411575	-3.10288	-0.186824	0.987713	-0.00656148	0.00967045	-0.0664425	-0.354031	0.0861529	0.090194	0	0	0.0342649	-0.00669965	0.0929381	0.104817	0.0556855	0	0	-0.0790903	-0.0882248	0.120392	-1.56598	-0.89983	-1.52936	0.83389	0.629447	0	0	1.12327	-1.49218	0.452589	0.0410446	1.5567	0	0
